<?xml version="1.0" encoding="UTF-8"?><svg id="a" xmlns="http://www.w3.org/2000/svg" width="148" height="32" viewBox="0 0 148 32"><defs><style>.b{fill:navy;}</style></defs><path class="b" d="M25.22,19.98h0c-.66-.82-1.16-1.35-1.53-1.62-.26-.19-.58-.37-.97-.56,.68-.23,1.27-.49,1.75-.78,1.27-.77,2.28-1.78,3-3.01,.73-1.24,1.1-2.73,1.1-4.42,0-1.94-.48-3.62-1.44-4.99-.96-1.37-2.24-2.33-3.8-2.83-1.51-.49-3.69-.74-6.49-.74H1.42V31.01H11.45v-11.74h.26c.71,0,1.33,.19,1.88,.57,.28,.2,.76,.72,1.46,2.05l4.93,9.11h11.27l-4.72-9.14c-.23-.46-.66-1.08-1.31-1.89ZM11.45,7.93h3.4c1.86,0,2.66,.34,3,.63,.47,.4,.7,.97,.7,1.75,0,.52-.15,.96-.45,1.36h0c-.3,.39-.67,.62-1.15,.72-1.4,.32-2,.38-2.25,.38h-3.24V7.93Z"/><polygon class="b" points="42.43 19.24 55.79 19.24 55.79 12.56 42.43 12.56 42.43 9.15 56.84 9.15 56.84 2.21 32.81 2.21 32.81 31.01 57.25 31.01 57.25 23.71 42.43 23.71 42.43 19.24"/><path class="b" d="M82.18,13.17c-1.72-.85-4.59-1.7-8.52-2.52-1.94-.39-2.56-.74-2.77-.92-.31-.25-.46-.52-.46-.8,0-.46,.19-.82,.59-1.15,.43-.35,1.11-.52,2.02-.52,1.13,0,2.02,.25,2.64,.74,.37,.3,.74,.75,1.03,1.26,.27,.47,.55,1.17,.55,1.17l9.17-.07-.07-.56c-.39-3.05-1.63-5.31-3.69-6.72-2.02-1.39-4.96-2.09-8.75-2.09-3.07,0-5.53,.38-7.32,1.14-1.82,.77-3.2,1.85-4.12,3.21-.92,1.36-1.38,2.83-1.38,4.37,0,2.34,.91,4.3,2.71,5.81,1.73,1.46,4.63,2.65,8.61,3.51,2.86,.61,3.94,1.16,4.34,1.51,.54,.47,.81,.98,.81,1.55,0,.61-.28,1.14-.85,1.61-.59,.5-1.47,.75-2.61,.75-1.56,0-2.71-.49-3.54-1.51-.5-.62-1.01-1.51-1.41-2.8l-9.19,.09,.05,.54c.26,2.94,1.39,5.41,3.37,7.33,1.99,1.92,5.55,2.9,10.58,2.9,2.86,0,5.27-.41,7.17-1.22,1.93-.82,3.45-2.04,4.53-3.64,1.08-1.6,1.63-3.37,1.63-5.26,0-1.62-.41-3.11-1.23-4.42-.82-1.31-2.13-2.42-3.9-3.3Z"/><path class="b" d="M109.32,19.19c0,1.39-.37,2.48-1.11,3.21-.75,.75-1.77,1.11-3.12,1.11s-2.39-.37-3.14-1.13c-.75-.76-1.12-1.81-1.12-3.2V2.19h-9.58V18.8c0,1.41,.27,3.04,.82,4.84,.35,1.16,1,2.3,1.93,3.39,.93,1.08,1.97,1.93,3.1,2.51,1.12,.59,2.53,.99,4.18,1.18,1.61,.19,3.12,.29,4.49,.29,2.39,0,4.47-.32,6.18-.96,1.26-.47,2.48-1.28,3.62-2.42,1.14-1.14,1.99-2.49,2.53-4.02,.53-1.5,.8-3.13,.8-4.82V2.19h-9.58V19.19Z"/><polygon class="b" points="133.17 23.16 133.17 2.21 123.58 2.21 123.58 31.01 146.58 31.01 146.58 23.16 133.17 23.16"/></svg>